<svg width="249" height="176" viewBox="0 0 249 176" fill="none" xmlns="http://www.w3.org/2000/svg">
<rect x="248.485" y="5" width="165.656" height="248.485" transform="rotate(90 248.485 5)" fill="#F5F5F5"/>
<line x1="9.50031" x2="9.50031" y2="175.66" stroke="#442B27"/>
<line x1="238.5" x2="238.5" y2="175.66" stroke="#442B27"/>
<line x1="248.485" y1="16.5" y2="16.5" stroke="#442B27"/>
<line x1="248.485" y1="162.873" y2="162.873" stroke="#442B27"/>
<g style="mix-blend-mode:luminosity">
<path d="M141.261 117.086V118H133.597V117.086H135.955L133.95 111.279H126.846L125.726 113.932C125.372 114.836 125.195 115.504 125.195 115.936C125.195 116.349 125.254 116.644 125.372 116.821C125.49 116.998 126.109 117.086 127.229 117.086V118H120.803V117.086C121.825 117.106 122.562 116.978 123.014 116.703C123.486 116.408 123.996 115.484 124.547 113.932L130.944 97.1299H132.123L139.079 117.086H141.261ZM127.259 110.159H133.538L130.619 101.522L127.259 110.159Z" fill="#47393A"/>
<path d="M144.948 85.7648V86.6786H137.284V85.7648H139.642L137.638 79.9577H130.534L129.413 82.6107C129.06 83.5147 128.883 84.1828 128.883 84.6152C128.883 85.0279 128.942 85.3226 129.06 85.4995C129.178 85.6764 129.797 85.7648 130.917 85.7648V86.6786H124.491V85.7648C125.512 85.7844 126.249 85.6567 126.701 85.3816C127.173 85.0868 127.684 84.1632 128.234 82.6107L134.631 65.8086H135.81L142.767 85.7648H144.948ZM130.946 78.8376H137.225L134.307 70.2007L130.946 78.8376Z" fill="#47393A"/>
<path d="M115.772 89.6016V90.5154H112.972V106.522C112.972 109.587 112.313 111.965 110.997 113.655C110.093 114.815 108.815 115.453 107.164 115.571C106.791 115.591 106.486 115.463 106.251 115.188C106.015 114.913 105.897 114.579 105.897 114.186C105.897 113.577 106.192 113.193 106.781 113.036C106.938 112.997 107.243 113.125 107.695 113.419C108.167 113.714 108.579 113.832 108.933 113.773C109.385 113.714 109.709 113.38 109.906 112.771C110.024 112.456 110.083 111.651 110.083 110.354V90.5154H107.312V89.6016H115.772Z" fill="#47393A"/>
<path d="M120.245 74.2103C120.206 77.6101 117.877 79.3099 113.259 79.3099H103V78.3961H105.771V59.9138H103V59H113.318C115.185 59 116.649 59.452 117.71 60.356C118.791 61.2599 119.331 62.4194 119.331 63.8343C119.331 65.2492 118.899 66.389 118.034 67.2537C117.169 68.1183 116.059 68.6686 114.703 68.9044C116 68.9241 117.189 69.3269 118.27 70.113C119.626 71.0956 120.284 72.4613 120.245 74.2103ZM116.413 64.0112C116.413 61.2796 115.204 59.9138 112.787 59.9138H108.454V68.5507H112.315C113.259 68.5507 114.123 68.2363 114.909 67.6074C115.912 66.782 116.413 65.5833 116.413 64.0112ZM115.44 77.6297C116.501 76.9223 117.022 75.7432 117.002 74.0924C116.983 72.422 116.432 71.1742 115.352 70.3488C114.546 69.7396 113.544 69.435 112.345 69.435H108.454V78.3961H112.581C113.701 78.3961 114.654 78.1407 115.44 77.6297Z" fill="#47393A"/>
</g>
</svg>
