<svg width="43" height="37" viewBox="0 0 43 37" fill="none" xmlns="http://www.w3.org/2000/svg">
<path d="M9.93566 35.8109C11.0311 34.4968 13.5357 30.8194 15.8868 27.9825C17.9183 25.5311 20.0908 23.8181 20.8992 22.2765C21.741 20.671 22.2266 16.4811 22.7787 11.2577C23.2084 7.19275 23.1873 4.68269 22.9311 2.21125C22.8469 1.39914 22.379 0.844118 21.9759 0.438839C21.5365 -0.00293696 20.3227 3.38844 19.3289 9.26336C18.3473 15.0655 19.0638 18.6522 19.1743 19.7532C19.5204 23.2047 20.3868 26.8969 21.5264 28.6627C22.3959 30.0099 22.9642 30.9475 23.6235 31.7194C23.9828 32.1402 24.7201 32.2727 25.2402 32.276C25.7603 32.2793 26.1248 32.0607 26.4583 31.7294C27.9199 30.2774 27.6045 28.1603 27.3859 26.9853C27.1397 25.6623 25.4048 24.8451 23.7881 24.2201C22.4952 23.7203 20.8418 23.7364 18.7127 23.9926C16.4054 24.2702 13.2685 25.934 9.84952 27.8102C5.99117 29.9276 1.92724 28.6727 0.477291 27.8268C-0.0219345 27.5355 1.97363 26.5391 4.17672 25.8401C6.30072 25.1662 10.3487 25.7948 15.275 26.4928C18.6227 26.967 21.6965 27.6368 25.6598 27.9317C34.4335 27.5684 38.4223 26.9764 39.2671 26.94C39.6746 26.9036 40.039 26.8307 41.077 26.7556" stroke="black" stroke-width="0.8" stroke-linecap="round"/>
<path d="M29.4653 29.4053C29.4653 29.4697 29.4653 29.6533 29.4922 30.037C29.519 30.2702 29.5728 30.5817 29.6004 30.9571C29.6281 31.3324 29.6281 31.7621 29.6281 32.2048" stroke="black" stroke-width="0.8" stroke-linecap="round"/>
<path d="M31.6463 29.0479C31.5601 29.1234 31.2147 29.4899 30.7095 30.2064C30.3241 30.6091 29.9757 30.8923 29.9053 30.9463C29.8778 30.9789 29.867 31.0218 29.856 31.0661" stroke="black" stroke-width="0.8" stroke-linecap="round"/>
<path d="M30.605 30.6436C30.756 30.7835 31.0379 31.0876 31.3524 31.3695C31.6786 31.5977 31.9813 31.8363 32.3561 32.1506C32.4276 32.2272 32.4598 32.2809 32.5581 32.4014" stroke="black" stroke-width="0.8" stroke-linecap="round"/>
<path d="M33.9712 28.8535C33.9712 28.9764 33.9712 29.3032 33.9975 29.8603C34.0266 30.4746 34.2011 30.9714 34.3119 31.2551C34.367 31.3961 34.423 31.4871 34.5379 31.5757C34.8571 31.8217 35.5213 31.5504 35.7752 31.4085C36.1179 31.2168 36.1881 30.9299 36.2812 30.5445C36.3363 30.3167 36.2514 29.8944 36.1797 29.5373C36.153 29.3684 36.1003 29.209 36.0511 29.0537C36.0465 29.0049 36.0465 28.9434 36.0465 28.8801" stroke="black" stroke-width="0.8" stroke-linecap="round"/>
<path d="M39.5584 28.7737C39.5584 28.7561 39.4618 28.7207 39.2891 28.6852C39.1629 28.6592 39.0358 28.729 38.8986 28.8129C38.6359 28.9737 38.4691 29.5586 38.3347 29.979C38.273 30.1718 38.2988 30.4398 38.4049 30.7061C38.4889 30.9167 38.609 31.0523 38.8168 31.1547C38.8779 31.1849 38.9538 31.1683 39.0164 31.142C39.2846 31.0289 39.5477 30.5244 39.7264 30.1096C39.8397 29.8464 39.9128 29.6618 39.9265 29.3421C39.9359 29.1223 40.0985 30.0923 40.179 30.4268C40.2392 30.6769 40.3119 30.8304 40.3608 30.9815C40.3741 31.0172 40.3917 31.0523 40.4051 31.088C40.4186 31.1236 40.4273 31.1587 40.4364 31.2215" stroke="black" stroke-width="0.8" stroke-linecap="round"/>
<path d="M42.08 30.4583C42.075 30.4936 42.065 30.6013 42.0898 30.6652C42.0991 30.6893 42.1446 30.6971 42.1819 30.7027C42.2137 30.7074 42.2467 30.7009 42.2803 30.6897C42.3167 30.6777 42.3415 30.645 42.3664 30.6152C42.4282 30.5413 42.389 30.4397 42.3729 30.4239C42.3505 30.4019 42.3143 30.3912 42.2833 30.3828C42.2424 30.3717 42.2047 30.3818 42.1811 30.3901C42.1459 30.4026 42.1274 30.4284 42.1174 30.4544C42.1022 30.4942 42.1049 30.531 42.1123 30.5505C42.1184 30.5667 42.1422 30.5739 42.1694 30.5795C42.1864 30.583 42.2115 30.5814 42.2279 30.575C42.2444 30.5685 42.2518 30.5556 42.2556 30.5388C42.2594 30.5219 42.2594 30.5016 42.2594 30.4807" stroke="black" stroke-width="0.8" stroke-linecap="round"/>
</svg>
