<svg width="249" height="176" viewBox="0 0 249 176" fill="none" xmlns="http://www.w3.org/2000/svg">
<rect x="248.485" y="5" width="165.656" height="248.485" transform="rotate(90 248.485 5)" fill="#F5F5F5"/>
<line x1="9.50031" x2="9.50031" y2="175.66" stroke="#442B27"/>
<line x1="238.5" x2="238.5" y2="175.66" stroke="#442B27"/>
<line x1="248.485" y1="16.5" y2="16.5" stroke="#442B27"/>
<line x1="248.485" y1="162.873" y2="162.873" stroke="#442B27"/>
<path d="M130.418 70.6328V53.3604H137.742V55.7094H132.906V60.822H137.189V63.0329H132.906L132.846 68.0825H137.798V70.6328H130.418Z" fill="#47393A"/>
<path d="M138.156 52.9463V56.1235H133.32V60.4081H137.604V63.447H133.315L133.266 67.6685H138.213V71.0472H130.004V52.9463H138.156ZM130.832 70.2189H137.384V68.4968H132.428L132.496 62.6187H136.775V61.2364H132.491V55.2952H137.328V53.7746H130.832V70.2189Z" fill="#47393A"/>
<path d="M122.682 53.3604H120.057V70.6328H122.544V62.9897H125.722V70.6328H128.071L128.21 53.3604H125.722V60.7927H122.682V53.3604Z" fill="#47393A"/>
<path d="M123.095 52.9463V60.379H125.306V52.9463H128.625L128.48 71.0472H125.306V63.4042H122.956V71.0472H119.641V52.9463H123.095ZM120.469 70.2189H122.128V62.5759H126.135V70.2189H127.658L127.79 53.7746H126.135V61.2073H122.267V53.7746H120.469V70.2189Z" fill="#47393A"/>
<path d="M110.934 55.7094V53.3604L119.087 53.3604V55.7094H116.323L116.258 70.5611H113.739V55.7094H110.934Z" fill="#47393A"/>
<path d="M119.501 52.9463V56.1235H116.735L116.67 70.9752H113.325V56.1235H110.52V52.9463H119.501ZM111.348 55.2952H114.153V70.1469H115.845L115.909 55.7078L115.911 55.2952H118.672V53.7746H111.348V55.2952Z" fill="#47393A"/>
<path d="M93.5413 79.3135V96.4477H96.0286V86.0843L98.5158 93.4078H99.7595L102.247 86.0843L102.109 96.4477H104.734V79.3135H102.247L99.0686 88.2951L96.0286 79.3135H93.5413Z" fill="#47393A"/>
<path d="M96.3255 78.8994L99.0773 87.0294L101.954 78.8994H105.148V96.862H101.689L101.798 88.6932L100.056 93.8222H98.2191L96.4428 88.5913V96.862H93.1273V78.8994H96.3255ZM93.9555 96.0337H95.6145V86.0846L96.421 85.9511L98.8128 92.994H99.4631L101.855 85.9511L102.661 86.0903L102.529 96.0337H104.32V79.7277H102.539L99.0603 89.5611L95.7318 79.7277H93.9555V96.0337Z" fill="#47393A"/>
<path d="M138.175 79.1758H135.549V96.4482H138.036V88.8052H141.215V96.4482H143.564L143.702 79.1758H141.215V86.6081H138.175V79.1758Z" fill="#47393A"/>
<path d="M138.587 78.7617V86.1944H140.798V78.7617H144.117L143.972 96.8626H140.798V89.2196H138.449V96.8626H135.133V78.7617H138.587ZM135.961 96.0343H137.62V88.3913H141.627V96.0343H143.151L143.282 79.59H141.627V87.0227H137.759V79.59H135.961V96.0343Z" fill="#47393A"/>
<path d="M116.203 81.6626V79.3135L124.356 79.3135V81.6626H121.592L121.527 96.5143H119.009V81.6626H116.203Z" fill="#47393A"/>
<path d="M124.77 78.8994V82.0767H122.005L121.94 96.9283H118.595V82.0767H115.789V78.8994H124.77ZM116.618 81.2484H119.423V96.1H121.115L121.178 81.6609L121.18 81.2484H123.942V79.7277H116.618V81.2484Z" fill="#47393A"/>
<path fill-rule="evenodd" clip-rule="evenodd" d="M107.223 82.2163V96.4487H109.572V92.8561H112.612V96.4487H115.099C115.099 96.4487 115.08 84.7034 114.961 82.2163C114.843 79.7291 112.244 78.9921 111.23 79.0381C108.356 79.0381 107.223 80.9727 107.223 82.2163ZM109.572 82.769C109.572 81.1108 112.612 81.1108 112.612 82.769V90.3688H109.572V82.769Z" fill="#47393A"/>
<path d="M111.23 78.6247C111.823 78.6027 112.797 78.7972 113.65 79.3244C114.528 79.8679 115.308 80.7856 115.375 82.1959C115.435 83.4503 115.469 87.0194 115.489 90.2619C115.499 91.886 115.505 93.433 115.508 94.5732C115.51 95.1431 115.512 95.6117 115.512 95.9377C115.513 96.1007 115.513 96.228 115.513 96.3147V96.4473L115.514 96.8623H112.198V93.2693H109.986V96.8623H106.809V82.2161C106.809 80.7417 108.129 78.6231 111.23 78.6231V78.6247ZM112.198 82.7685C112.198 82.4987 112.082 82.3076 111.893 82.1708C111.693 82.0252 111.403 81.9386 111.092 81.9386C110.781 81.9387 110.491 82.0253 110.291 82.1708C110.103 82.3076 109.986 82.4987 109.986 82.7685V89.9545H112.198V82.7685ZM113.026 90.7828H109.158V82.7685C109.158 82.2095 109.422 81.7788 109.803 81.501C110.173 81.2322 110.643 81.1104 111.092 81.1104C111.54 81.1104 112.011 81.2322 112.38 81.501C112.762 81.7788 113.026 82.2093 113.026 82.7685V90.7828ZM107.637 96.034H109.158V92.441H113.026V96.034H114.684C114.684 96.004 114.684 95.9723 114.684 95.9394C114.683 95.6135 114.682 95.1452 114.68 94.5756C114.676 93.436 114.67 91.8905 114.661 90.2676C114.641 87.0157 114.606 83.4683 114.547 82.2355C114.496 81.1587 113.917 80.4642 113.214 80.0289C112.492 79.5829 111.671 79.4322 111.249 79.4514H111.23C108.583 79.4514 107.637 81.2034 107.637 82.2161V96.034Z" fill="#47393A"/>
<path fill-rule="evenodd" clip-rule="evenodd" d="M146.051 82.3559V96.5884H148.4V92.9957H151.44V96.5884H153.927C153.927 96.5884 153.908 84.8431 153.789 82.3559C153.671 79.8687 151.072 79.1317 150.058 79.1778C147.184 79.1778 146.051 81.1123 146.051 82.3559ZM148.4 82.9086V90.5085H151.44V82.9086C151.44 81.2505 148.4 81.2505 148.4 82.9086Z" fill="#47393A"/>
<path d="M150.056 78.7653C150.649 78.7433 151.623 78.9378 152.476 79.465C153.354 80.0085 154.134 80.9263 154.201 82.3365C154.261 83.5909 154.295 87.1601 154.315 90.4025C154.325 92.0267 154.331 93.5736 154.334 94.7138C154.336 95.2838 154.338 95.7523 154.339 96.0784C154.339 96.2413 154.339 96.3686 154.339 96.4553V96.588L154.34 97.0029H151.024V93.4099H148.812V97.0029H145.635V82.3567C145.635 80.8823 146.956 78.7638 150.056 78.7637V78.7653ZM151.019 82.8113C150.994 82.5922 150.884 82.4311 150.72 82.3114C150.519 82.1658 150.23 82.0793 149.918 82.0793C149.607 82.0793 149.317 82.1659 149.117 82.3114C148.929 82.4482 148.812 82.6393 148.812 82.9092V90.0952H151.024V82.9092L151.019 82.8113ZM151.852 90.9234H147.984V82.9092C147.984 82.3501 148.248 81.9194 148.63 81.6417C148.999 81.3728 149.47 81.251 149.918 81.251C150.366 81.251 150.837 81.3728 151.207 81.6417C151.588 81.9194 151.852 82.35 151.852 82.9092V90.9234ZM146.463 96.1746H147.984V92.5816H151.852V96.1746H153.51C153.51 96.1447 153.51 96.1129 153.51 96.08C153.509 95.7541 153.508 95.2859 153.506 94.7162C153.502 93.5766 153.497 92.0312 153.487 90.4082C153.467 87.1563 153.432 83.6089 153.374 82.3761C153.322 81.2994 152.743 80.6048 152.04 80.1695C151.319 79.7235 150.497 79.5728 150.075 79.592H150.056C147.409 79.5921 146.463 81.344 146.463 82.3567V96.1746Z" fill="#47393A"/>
<path d="M133.476 84.1516L130.989 84.1505V82.9068C130.989 81.2488 128.087 81.1106 128.087 82.9068V92.9939C128.087 94.6519 130.989 94.514 130.989 92.9941V91.6122L133.476 91.6122C133.66 93.2243 133.228 96.4761 130.022 96.5866C127.811 96.7259 125.6 95.7586 125.6 93.2703V82.4934C125.6 80.0051 127.811 79.0379 130.022 79.1771C133.228 79.2876 133.66 82.5395 133.476 84.1516Z" fill="#47393A"/>
<path d="M126.757 79.5016C127.679 78.9068 128.874 78.692 130.035 78.7631L130.036 78.7622C131.815 78.8236 132.852 79.7754 133.395 80.9235C133.924 82.0422 133.986 83.3415 133.888 84.1979L133.846 84.5651L130.575 84.5643V82.9061C130.575 82.6268 130.458 82.423 130.277 82.2776C130.086 82.1247 129.815 82.0321 129.529 82.0252C129.242 82.0184 128.979 82.0981 128.797 82.2412C128.626 82.3749 128.501 82.5818 128.501 82.9061V92.9935C128.501 93.2696 128.614 93.4493 128.783 93.571C128.966 93.703 129.234 93.7778 129.529 93.7708C129.822 93.7638 130.098 93.676 130.29 93.5346C130.472 93.4005 130.575 93.2238 130.575 92.9935V91.1978H133.846L133.888 91.5642C133.986 92.4205 133.924 93.72 133.395 94.8385C132.852 95.9867 131.815 96.9385 130.036 96.9998L130.035 96.999C128.874 97.07 127.679 96.856 126.757 96.2613C125.813 95.6515 125.186 94.658 125.186 93.2701V82.4928C125.186 81.1047 125.813 80.1114 126.757 79.5016ZM126.014 93.2701C126.014 94.3699 126.493 95.1039 127.206 95.5649C127.94 96.0387 128.95 96.2381 129.995 96.1724H130.008C131.434 96.1232 132.217 95.3934 132.646 94.4851C133.022 93.6892 133.122 92.7531 133.092 92.0261H131.403V92.9935C131.403 93.5231 131.144 93.9338 130.782 94.2011C130.429 94.4612 129.98 94.5888 129.548 94.5991C129.117 94.6093 128.66 94.5033 128.298 94.2424C127.923 93.9712 127.673 93.5462 127.673 92.9935V82.9061C127.673 82.3324 127.911 81.883 128.285 81.5892C128.647 81.3049 129.109 81.1865 129.548 81.1969C129.987 81.2074 130.441 81.3481 130.795 81.6313C131.157 81.9219 131.403 82.3567 131.403 82.9061V83.736H133.092C133.122 83.0091 133.022 82.0734 132.646 81.2778C132.217 80.3694 131.434 79.6397 130.008 79.5905H130.002L129.995 79.5897C128.95 79.5239 127.94 79.7234 127.206 80.1972C126.493 80.6582 126.014 81.3926 126.014 82.4928V93.2701Z" fill="#47393A"/>
<path d="M133.797 122.125V104.853H141.121V107.202H136.284L136.284 112.314H140.568V114.525H136.284L136.225 119.575H141.177V122.125H133.797Z" fill="#47393A"/>
<path d="M141.537 104.438V107.615H136.701V111.899H140.984V114.938H136.696L136.646 119.16H141.593V122.538H133.385V104.438H141.537ZM134.213 121.71H140.765V119.988H135.808L135.813 119.569L135.877 114.11H140.156V112.728H135.872V106.786H140.709V105.266H134.213V121.71Z" fill="#47393A"/>
<path fill-rule="evenodd" clip-rule="evenodd" d="M108.451 121.986V104.714H113.348C117.353 104.716 117.571 112.037 114.808 112.866V113.005C117.848 114.386 117.079 121.986 113.348 121.986H108.451ZM110.939 107.063V111.761H112.597C114.531 111.761 114.808 107.063 112.597 107.063H110.939ZM110.939 113.972V119.499H112.735C114.67 119.499 114.808 113.972 112.597 113.972H110.939Z" fill="#47393A"/>
<path d="M113.346 104.301L113.558 104.307C113.627 104.311 113.696 104.317 113.763 104.325C114.708 104.437 115.449 104.93 115.981 105.619C116.58 106.395 116.916 107.415 117.027 108.436C117.138 109.457 117.027 110.518 116.694 111.391C116.633 111.554 116.562 111.712 116.482 111.864C116.248 112.312 115.935 112.701 115.538 112.97C116.127 113.43 116.532 114.11 116.779 114.863C117.098 115.838 117.171 116.982 117.025 118.07C116.879 119.156 116.51 120.222 115.907 121.027C115.3 121.839 114.439 122.402 113.346 122.402H108.035V104.301H113.346ZM108.864 121.573H113.346C114.118 121.573 114.753 121.186 115.244 120.53C115.74 119.867 116.072 118.946 116.204 117.959C116.337 116.974 116.266 115.959 115.992 115.121C115.716 114.279 115.252 113.664 114.634 113.383L114.392 113.272V112.559L114.687 112.471C114.882 112.413 115.064 112.308 115.231 112.162C115.287 112.114 115.34 112.061 115.392 112.003C115.6 111.771 115.779 111.467 115.92 111.097C115.98 110.938 116.03 110.769 116.074 110.594C116.124 110.394 116.163 110.185 116.19 109.969C116.249 109.505 116.256 109.014 116.203 108.526C116.104 107.612 115.806 106.75 115.325 106.126C114.882 105.553 114.283 105.179 113.503 105.134C113.452 105.131 113.399 105.129 113.346 105.129H108.864V121.573ZM112.595 113.559C113.357 113.559 113.879 114.046 114.189 114.646C114.497 115.241 114.633 116.003 114.633 116.736C114.633 117.471 114.496 118.228 114.211 118.817C113.931 119.397 113.449 119.914 112.733 119.914H110.523V113.559H112.595ZM111.351 119.086H112.733C112.985 119.086 113.245 118.912 113.465 118.456C113.682 118.009 113.804 117.383 113.804 116.736C113.804 116.088 113.682 115.468 113.453 115.026C113.228 114.59 112.939 114.387 112.595 114.387H111.351V119.086ZM112.595 106.65C113.324 106.65 113.845 107.049 114.159 107.59C114.463 108.116 114.583 108.786 114.564 109.425C114.545 110.065 114.385 110.726 114.078 111.241C113.768 111.758 113.273 112.176 112.595 112.176H110.523V106.65H112.595ZM111.351 111.348H112.595C112.884 111.348 113.149 111.179 113.367 110.815C113.586 110.449 113.72 109.935 113.736 109.401C113.751 108.865 113.647 108.36 113.441 108.005C113.245 107.666 112.971 107.478 112.595 107.478H111.351V111.348Z" fill="#47393A"/>
<path d="M120.947 104.853H118.598L118.736 121.849H120.947V104.853Z" fill="#47393A"/>
<path d="M121.362 104.438V122.262H118.327L118.182 104.438H121.362ZM119.149 121.433H120.534V105.266H119.017L119.149 121.433Z" fill="#47393A"/>
<path d="M125.921 104.853H123.434L123.434 121.987H125.921V116.736L127.303 114.387L129.928 121.987H132.692L128.685 111.623L132.001 104.853H129.514L125.921 112.629V104.853Z" fill="#47393A"/>
<path d="M126.335 104.438V110.744L129.249 104.438H132.666L132.373 105.034L129.136 111.641L133.297 122.4H129.633L127.204 115.37L126.335 116.847V122.4H123.02V104.438H126.335ZM123.848 121.572H125.507V116.622L125.565 116.525L127.401 113.402L130.224 121.572H132.088L128.299 111.772L128.233 111.603L131.337 105.266H129.779L126.297 112.802L125.507 112.628V105.266H123.848V121.572Z" fill="#47393A"/>
</svg>
